<!DOCTYPE svg PUBLIC "-//W3C//DTD SVG 20010904//EN" "http://www.w3.org/TR/2001/REC-SVG-20010904/DTD/svg10.dtd">
<svg version="1.0" xmlns="http://www.w3.org/2000/svg" width="32px" height="32px" viewBox="0 0 320 320" preserveAspectRatio="xMidYMid meet">
<g id="layer1" fill="#800080" stroke="none">
 <path d="M42 137 c-8 -10 -5 -13 16 -12 23 0 27 -4 27 -27 -1 -21 2 -24 12 -16 7 6 13 18 13 27 0 36 -46 55 -68 28z"/>
 </g>
<g id="layer2" fill="#808000" stroke="none">
 <path d="M152 87 c-8 -10 -5 -13 16 -12 23 0 27 -4 27 -27 -1 -21 2 -24 12 -16 7 6 13 18 13 27 0 36 -46 55 -68 28z"/>
 </g>
<g id="layer3" fill="#ff00ff" stroke="none">
 <path d="M36 121 c-10 -15 34 -55 46 -43 16 16 5 47 -19 50 -11 2 -24 -1 -27 -7z"/>
 </g>
<g id="layer4" fill="#ffff00" stroke="none">
 <path d="M146 71 c-10 -15 34 -55 46 -43 16 16 5 47 -19 50 -11 2 -24 -1 -27 -7z"/>
 </g>
<g id="layer5" fill="#c0c0c0" stroke="none">
 <path d="M180 293 c26 -2 50 -11 58 -20 11 -15 12 -15 12 5 0 20 -4 22 -57 20 -54 -1 -55 -2 -13 -5z"/>
 <path d="M102 235 l-27 -30 31 28 c29 26 33 27 47 12 14 -14 17 -14 27 2 10 16 11 15 7 -5 -3 -12 -1 -19 4 -16 22 13 3 37 -29 38 -25 1 -40 -7 -60 -29z"/>
 </g>
<g id="layer6" fill="#808080" stroke="none">
 <path d="M209 183 c-13 -16 -12 -17 4 -4 16 13 21 21 13 21 -2 0 -10 -8 -17 -17z"/>
 <path d="M270 196 c0 -2 8 -10 18 -17 15 -13 16 -12 3 4 -13 16 -21 21 -21 13z"/>
 <path d="M29 143 c-13 -16 -12 -17 4 -4 16 13 21 21 13 21 -2 0 -10 -8 -17 -17z"/>
 <path d="M90 156 c0 -2 8 -10 18 -17 15 -13 16 -12 3 4 -13 16 -21 21 -21 13z"/>
 <path d="M204 116 c1 -9 7 -21 13 -27 9 -9 11 -7 9 5 -1 9 -7 21 -13 27 -9 9 -11 7 -9 -5z"/>
 <path d="M279 113 c-13 -16 -12 -17 4 -4 16 13 21 21 13 21 -2 0 -10 -8 -17 -17z"/>
 <path d="M139 93 c-13 -16 -12 -17 4 -4 9 7 17 15 17 17 0 8 -8 3 -21 -13z"/>
 <path d="M20 86 c0 -2 8 -10 18 -17 15 -13 16 -12 3 4 -13 16 -21 21 -21 13z"/>
 <path d="M99 73 c-13 -16 -12 -17 4 -4 9 7 17 15 17 17 0 8 -8 3 -21 -13z"/>
 <path d="M130 36 c0 -2 8 -10 18 -17 15 -13 16 -12 3 4 -13 16 -21 21 -21 13z"/>
 <path d="M209 23 c-13 -16 -12 -17 4 -4 9 7 17 15 17 17 0 8 -8 3 -21 -13z"/>
 </g>
<g id="layer7" fill="#008000" stroke="none">
 <path d="M222 178 c-17 -17 -15 -25 10 -50 23 -23 50 -16 56 16 7 36 -40 60 -66 34z"/>
 </g>
<g id="layer8" fill="#ffffff" stroke="none">
 <path d="M100 255 c-18 -19 -31 -37 -29 -40 3 -3 18 9 34 25 19 20 39 30 57 30 33 0 46 -23 28 -45 -24 -29 -4 -25 25 5 39 41 29 60 -33 60 -42 0 -52 -5 -82 -35z"/>
 <path d="M111 226 l-22 -23 25 0 c28 0 51 20 41 37 -9 15 -19 12 -44 -14z m39 10 c0 -2 -8 -10 -17 -17 -16 -13 -17 -12 -4 4 13 16 21 21 21 13z"/>
 <path d="M220 125 c7 -9 15 -13 17 -11 7 7 -7 26 -19 26 -6 0 -6 -6 2 -15z"/>
 <path d="M40 85 c7 -9 15 -13 17 -11 7 7 -7 26 -19 26 -6 0 -6 -6 2 -15z"/>
 <path d="M150 35 c7 -9 15 -13 17 -11 7 7 -7 26 -19 26 -6 0 -6 -6 2 -15z"/>
 </g>
<g id="layer9" fill="#000000" stroke="none">
 <path d="M100 265 c-48 -49 -46 -65 8 -71 20 -2 35 3 43 14 11 14 11 15 -1 5 -27 -24 -33 -13 -9 15 l24 27 -31 -27 c-41 -37 -55 -36 -19 2 16 17 37 30 48 30 15 0 17 -5 12 -29 -9 -41 7 -45 39 -12 18 19 34 27 47 24 16 -5 19 0 19 31 l0 36 -68 0 c-67 0 -68 0 -112 -45z m150 17 c0 -10 -16 -33 -35 -52 l-36 -35 3 35 c4 48 -24 52 -68 9 -48 -46 -56 -27 -9 21 36 37 43 40 92 40 44 0 53 -3 53 -18z"/>
 <path d="M217 182 c-22 -24 -21 -45 1 -65 24 -22 45 -21 65 1 22 24 21 45 -1 65 -24 22 -45 21 -65 -1z m63 -7 c26 -32 -13 -81 -47 -59 -23 14 -28 41 -13 59 16 19 44 19 60 0z"/>
 <path d="M37 142 c-22 -24 -21 -45 1 -65 24 -22 45 -21 65 1 22 24 21 45 -1 65 -24 22 -45 21 -65 -1z m63 -7 c26 -32 -13 -81 -47 -59 -10 6 -19 19 -21 28 -8 38 43 61 68 31z"/>
 <path d="M147 92 c-22 -24 -21 -45 1 -65 24 -22 45 -21 65 1 22 24 21 45 -1 65 -24 22 -45 21 -65 -1z m63 -7 c26 -32 -13 -81 -47 -59 -23 14 -28 41 -13 59 16 19 44 19 60 0z"/>
 </g>

</svg>